<svg xmlns="http://www.w3.org/2000/svg" viewBox="0 0 32 32">
  <defs>
    <linearGradient id="g" x1="0" x2="1" y1="0" y2="1">
      <stop offset="0%" stop-color="#3b82f6"/>
      <stop offset="100%" stop-color="#1d4ed8"/>
    </linearGradient>
  </defs>
  <rect width="32" height="32" rx="7" fill="url(#g)"/>
  <!-- webhook glyph: two-way link arcs + dot -->
  <path d="M11.5 11.5a3.5 3.5 0 0 1 3.5-3.5h2a3.5 3.5 0 0 1 3.5 3.5v2.5l-1.5 1.25V11.5a2 2 0 0 0-2-2h-2a2 2 0 0 0-2 2v3.5H11.5v-3.5z" fill="#fff" opacity=".95"/>
  <path d="M8.5 16a1.5 1.5 0 0 1 1.5-1.5h1.75V16H10a.5.5 0 0 0-.5.5v3a.5.5 0 0 0 .5.5h1.75V21H10a1.5 1.5 0 0 1-1.5-1.5v-3.5z" fill="#fff" opacity=".7"/>
  <path d="M22 14.5a1.5 1.5 0 0 1 1.5 1.5v3.5a1.5 1.5 0 0 1-1.5 1.5h-1.75V20H22a.5.5 0 0 0 .5-.5v-3a.5.5 0 0 0-.5-.5h-1.75v-1.5H22z" fill="#fff" opacity=".7"/>
  <circle cx="16" cy="22.5" r="1.5" fill="#fff"/>
</svg>
